<?xml version="1.0" encoding="utf-8"?>
<!-- Generator: Adobe Illustrator 17.1.0, SVG Export Plug-In . SVG Version: 6.00 Build 0)  -->
<!DOCTYPE svg PUBLIC "-//W3C//DTD SVG 1.1//EN" "http://www.w3.org/Graphics/SVG/1.1/DTD/svg11.dtd">
<svg version="1.1" id="Layer_1" xmlns="http://www.w3.org/2000/svg" xmlns:xlink="http://www.w3.org/1999/xlink" x="0px" y="0px"
	 viewBox="0 0 84.9 53.9" enable-background="new 0 0 84.9 53.9" xml:space="preserve">
<g display="none">
	<path display="inline" d="M16.6,13.6c1.3-2.5,3.5-3.2,6.2-3.2c8.4,0.1,16.8,0,25.3,0c4.4,0,6,1.5,6,5.9c0,7.1,0,14.2,0,21.2
		c0,4.2-1.5,5.7-5.7,5.7c-8.5,0-17.1,0-25.6,0c-2.6,0-4.7-0.7-6.1-3.1C16.6,31.4,16.6,22.5,16.6,13.6z M35.6,12.8
		c-4.4,0-8.9,0-13.3,0c-2.5,0-3.3,0.7-3.3,3.2c0,7.3,0,14.6,0,21.8c0,2.4,0.7,3.2,3.1,3.2c8.9,0,17.8,0,26.6,0
		c2.5,0,3.2-0.7,3.2-3.3c0-7.2,0-14.4,0-21.6c0-2.5-0.7-3.2-3.2-3.2C44.4,12.8,40,12.8,35.6,12.8z"/>
	<path display="inline" fill="#FF0000" d="M57,22.4c-0.6-2,0.1-3.1,1.4-4.1c3.3-2.4,6.4-5,9.8-7.8c0,11,0,21.7,0,32.6
		c-3.8-3-7.4-5.7-10.9-8.7c-0.6-0.5-0.5-1.7-0.7-2.7c0.2-0.1,0.3-0.2,0.5-0.3c2.8,2.1,5.6,4.2,8.7,6.5c0-7.6,0-14.8,0-22.2
		C62.8,18.1,60,20.2,57,22.4z"/>
</g>
<g>
	<path fill-rule="evenodd" clip-rule="evenodd" d="M26,13.7c0.2-0.6,0.4-1.2,0.7-1.7c0.7-1.1,1.9-1.6,3.2-1.7c0.2,0,0.4,0,0.5,0
		c8.8,0,17.6,0,26.4,0c0.5,0,1,0.1,1.5,0.2c1.9,0.5,2.9,1.8,2.9,3.8c0,7,0,14.1,0,21.1c0,2.4-1.8,4-4.3,4c-3.4,0-6.8,0-10.3,0
		c-5.4,0-10.8,0-16.2,0c-0.7,0-1.5-0.2-2.1-0.4c-1.2-0.5-2-1.4-2.2-2.7c0-0.1-0.1-0.2-0.1-0.3C26,28.5,26,21.1,26,13.7z M43.6,37.3
		c4.4,0,8.7,0,13.1,0c0.3,0,0.6,0,0.8-0.1c1.1-0.2,1.6-1,1.6-2.2c0-6.8,0-13.6,0-20.4c0-0.1,0-0.2,0-0.4c-0.1-1-0.6-1.6-1.6-1.8
		c-0.2,0-0.5-0.1-0.7-0.1c-8.8,0-17.6,0-26.4,0c-0.1,0-0.2,0-0.3,0c-1.2,0.1-1.9,0.8-2,2c0,0.1,0,0.3,0,0.4c0,6.7,0,13.4,0,20.1
		c0,0.2,0,0.3,0,0.5c0.1,1.1,0.8,1.8,1.9,1.9c0.2,0,0.4,0,0.6,0C34.9,37.3,39.3,37.3,43.6,37.3z"/>
	<path fill-rule="evenodd" clip-rule="evenodd" d="M26,42.2c0.3-0.6,0.8-0.7,1.4-0.7c10.9,0,21.7,0,32.6,0c0.9,0,1.3,0.4,1.3,1.1
		c0,0.6-0.3,1-1,1c-2.8,0-5.5,0-8.3,0c-1.5,0-3.1,0-4.6,0c-0.1,0-0.3,0-0.5,0c1.5,2.1,2.9,4.1,4.4,6.2c-0.7,0-1.3,0-1.9,0
		c-0.1,0-0.3-0.2-0.4-0.3c-1.3-1.8-2.6-3.7-3.9-5.5c-0.4-0.6-1-0.6-1.3,0c-1.3,1.8-2.6,3.7-3.9,5.6c-0.2,0.2-0.3,0.3-0.6,0.3
		c-0.5,0-1.1,0-1.7,0c1.5-2.1,2.9-4.1,4.3-6.2c-0.2,0-0.3,0-0.4,0c-4.8,0-9.6,0-14.4,0c-0.5,0-0.7-0.2-1-0.6
		C26,42.7,26,42.4,26,42.2z"/>
	<path fill-rule="evenodd" clip-rule="evenodd" d="M44.7,4.1c0,0.7,0,1.3,0,2.1c0.6,0,1.3,0,2,0c0,0.7,0,1.4,0,2.1c-2,0-4.1,0-6.1,0
		c0-0.7,0-1.3,0-2c0.7,0,1.3,0,2,0c0-0.7,0-1.4,0-2.1C43.3,4.1,44,4.1,44.7,4.1z"/>
	<path fill-rule="evenodd" clip-rule="evenodd" d="M30.2,18.6c0-1.4,0-2.7,0-4.1c9,0,17.9,0,26.9,0c0,1.4,0,2.7,0,4.1
		C48.1,18.6,39.1,18.6,30.2,18.6z"/>
	<path fill-rule="evenodd" clip-rule="evenodd" d="M36.4,22.8c0,2.1,0,4.1,0,6.2c2.1,0,4.1,0,6.2,0c0.2,2.1-1.2,4.4-3.2,5.5
		c-2.3,1.3-5.2,0.9-7.2-0.9c-2-1.8-2.6-4.7-1.5-7.1C31.7,24.2,34.1,22.6,36.4,22.8z"/>
	<path fill-rule="evenodd" clip-rule="evenodd" d="M46.7,26.9c0-0.7,0-1.3,0-2c3.4,0,6.9,0,10.3,0c0,0.7,0,1.3,0,2
		C53.6,26.9,50.2,26.9,46.7,26.9z"/>
	<path fill-rule="evenodd" clip-rule="evenodd" d="M46.7,33.1c0-0.7,0-1.3,0-2c3.4,0,6.9,0,10.3,0c0,0.7,0,1.3,0,2
		C53.6,33.1,50.2,33.1,46.7,33.1z"/>
</g>
</svg>
