<?xml version="1.0" encoding="utf-8"?>
<!-- Generator: Adobe Illustrator 17.1.0, SVG Export Plug-In . SVG Version: 6.00 Build 0)  -->
<!DOCTYPE svg PUBLIC "-//W3C//DTD SVG 1.1//EN" "http://www.w3.org/Graphics/SVG/1.1/DTD/svg11.dtd">
<svg version="1.1" id="Layer_1" xmlns="http://www.w3.org/2000/svg" xmlns:xlink="http://www.w3.org/1999/xlink" x="0px" y="0px"
	 viewBox="0 0 84.9 53.9" enable-background="new 0 0 84.9 53.9" xml:space="preserve">
<g display="none">
	<path display="inline" d="M16.6,13.6c1.3-2.5,3.5-3.2,6.2-3.2c8.4,0.1,16.8,0,25.3,0c4.4,0,6,1.5,6,5.9c0,7.1,0,14.2,0,21.2
		c0,4.2-1.5,5.7-5.7,5.7c-8.5,0-17.1,0-25.6,0c-2.6,0-4.7-0.7-6.1-3.1C16.6,31.4,16.6,22.5,16.6,13.6z M35.6,12.8
		c-4.4,0-8.9,0-13.3,0c-2.5,0-3.3,0.7-3.3,3.2c0,7.3,0,14.6,0,21.8c0,2.4,0.7,3.2,3.1,3.2c8.9,0,17.8,0,26.6,0
		c2.5,0,3.2-0.7,3.2-3.3c0-7.2,0-14.4,0-21.6c0-2.5-0.7-3.2-3.2-3.2C44.4,12.8,40,12.8,35.6,12.8z"/>
	<path display="inline" fill="#FF0000" d="M57,22.4c-0.6-2,0.1-3.1,1.4-4.1c3.3-2.4,6.4-5,9.8-7.8c0,11,0,21.7,0,32.6
		c-3.8-3-7.4-5.7-10.9-8.7c-0.6-0.5-0.5-1.7-0.7-2.7c0.2-0.1,0.3-0.2,0.5-0.3c2.8,2.1,5.6,4.2,8.7,6.5c0-7.6,0-14.8,0-22.2
		C62.8,18.1,60,20.2,57,22.4z"/>
</g>
<g>
	<path fill-rule="evenodd" clip-rule="evenodd" d="M16.5,42.5c0-8.8,0-17.6,0-26.4c1.2-2.4,3.1-3.4,5.7-3.3c2.4,0.1,4.9-0.1,7.3,0.1
		c2.2,0.2,3.7-0.4,4.6-2.6c0.6-1.7,1.9-2.2,3.7-2.2c3.4,0.1,6.9,0.2,10.3,0c2.8-0.2,4.7,0.6,5.7,3.3c0.4,1.2,1.3,1.5,2.5,1.4
		c2.2-0.1,4.5,0,6.7,0c3.7,0,5.3,1.7,5.3,5.3c0,7.2,0,14.3,0,21.5c0,4.4-1.5,5.9-6,5.9c-13.3,0-26.6,0-39.9,0
		C19.8,45.7,17.7,45,16.5,42.5z M42.4,43.3c6.8,0,13.6,0,20.5,0c2.3,0,3.1-0.7,3.1-2.7c0-7.6,0-15.1,0-22.7c0-1.8-0.9-2.6-2.6-2.6
		c-2.1,0-4.2-0.2-6.3,0c-2.8,0.3-4.8-0.4-5.9-3.2c-0.5-1.3-1.5-1.7-2.9-1.6c-2.7,0.1-5.4,0.3-8.1,0c-2.7-0.3-4.4,0.6-5.2,3.1
		c-0.5,1.5-1.5,1.8-3,1.7c-3.2-0.1-6.5,0-9.7,0c-2.9,0-3.5,0.5-3.5,3.4c0,7.1,0,14.2,0,21.3c0,2.8,0.6,3.4,3.5,3.4
		C29,43.3,35.7,43.3,42.4,43.3z"/>
	<path fill-rule="evenodd" clip-rule="evenodd" d="M30.6,9.4c0,0.9,0,1.4,0,2.3c-1.2,0-2.4,0.1-3.6-0.1c-0.4,0-1-0.7-1-1.1
		c0-0.4,0.6-1.1,0.9-1.1C28.1,9.3,29.3,9.4,30.6,9.4z"/>
	<path fill-rule="evenodd" clip-rule="evenodd" d="M43.6,38.6C37.7,38.6,33,34,33,28.1c0-5.9,4.7-10.5,10.6-10.5
		c5.9,0,10.6,4.7,10.6,10.5C54.2,34,49.5,38.6,43.6,38.6z M51.8,28c0-4.5-3.7-8.1-8.2-8.1c-4.5,0-8.3,3.6-8.3,8.2
		c0,4.5,3.7,8.2,8.3,8.2C48.2,36.3,51.9,32.6,51.8,28z"/>
	<path fill-rule="evenodd" clip-rule="evenodd" d="M56.1,22.6c-0.6-0.9-1.7-1.7-1.8-2.6c-0.2-1.4,0.9-2.3,2.4-2.3
		c1.4,0,2.4,1,2.2,2.3c-0.2,0.9-1.2,1.7-1.8,2.6C56.7,22.6,56.4,22.6,56.1,22.6z"/>
</g>
</svg>
