<?xml version="1.0" encoding="utf-8"?>
<!-- Generator: Adobe Illustrator 17.1.0, SVG Export Plug-In . SVG Version: 6.00 Build 0)  -->
<!DOCTYPE svg PUBLIC "-//W3C//DTD SVG 1.1//EN" "http://www.w3.org/Graphics/SVG/1.1/DTD/svg11.dtd">
<svg version="1.1" id="Layer_1" xmlns="http://www.w3.org/2000/svg" xmlns:xlink="http://www.w3.org/1999/xlink" x="0px" y="0px"
	 viewBox="0 0 960 560" enable-background="new 0 0 960 560" xml:space="preserve">
<path d="M211.4,141.3c13.5-26,36.4-33.2,64.4-33.2c87.3,1,174.5,0,262.9,0c45.7,0,62.3,15.6,62.3,61.3c0,73.8,0,147.5,0,220.3
	c0,43.6-15.6,59.2-59.2,59.2c-88.3,0-177.7,0-266,0c-27,0-48.8-7.3-63.4-32.2C211.4,326.2,211.4,233.8,211.4,141.3z M408.8,133
	c-45.7,0-92.5,0-138.2,0c-26,0-34.3,7.3-34.3,33.2c0,75.8,0,151.7,0,226.5c0,24.9,7.3,33.2,32.2,33.2c92.5,0,184.9,0,276.4,0
	c26,0,33.2-7.3,33.2-34.3c0-74.8,0-149.6,0-224.4c0-26-7.3-33.2-33.2-33.2C500.3,133,454.5,133,408.8,133z"/>
<path d="M631.2,232.7c-6.2-20.8,1-32.2,14.5-42.6c34.3-24.9,66.5-51.9,101.8-81c0,114.3,0,225.5,0,338.7
	c-39.5-31.2-76.9-59.2-113.2-90.4c-6.2-5.2-5.2-17.7-7.3-28.1c2.1-1,3.1-2.1,5.2-3.1c29.1,21.8,58.2,43.6,90.4,67.5
	c0-79,0-153.8,0-230.6C691.4,188.1,662.3,209.9,631.2,232.7z"/>
</svg>
